<svg width="32" height="32" viewBox="0 0 32 32" fill="none" xmlns="http://www.w3.org/2000/svg">
<path fill-rule="evenodd" clip-rule="evenodd" d="M0 16C0 7.16344 7.16344 0 16 0C24.8366 0 32 7.16344 32 16C32 24.8366 24.8366 32 16 32C7.16344 32 0 24.8366 0 16Z" fill="white"/>
<path fill-rule="evenodd" clip-rule="evenodd" d="M15.9994 7.00438C18.7534 7.00438 20.6111 8.19396 21.6703 9.18799L25.8094 5.14668C23.2673 2.78381 19.9592 1.3335 15.9994 1.3335C10.2633 1.3335 5.30946 4.62522 2.89771 9.41613L7.63974 13.0989C8.82932 9.56279 12.121 7.00438 15.9994 7.00438Z" fill="#EA4335"/>
<path fill-rule="evenodd" clip-rule="evenodd" d="M30.0789 16.3255C30.0789 15.1197 29.9812 14.2397 29.7693 13.3271H15.9995V18.7699H24.0822C23.9192 20.1224 23.0392 22.1594 21.0838 23.5282L25.7117 27.1133C28.482 24.5548 30.0789 20.7906 30.0789 16.3255Z" fill="#4285F4"/>
<path fill-rule="evenodd" clip-rule="evenodd" d="M7.65609 18.9015C7.34647 17.989 7.16722 17.0113 7.16722 16.0009C7.16722 14.9906 7.34647 14.0129 7.63979 13.1003L2.89776 9.41748C1.90372 11.4055 1.33337 13.6381 1.33337 16.0009C1.33337 18.3638 1.90372 20.5963 2.89776 22.5844L7.65609 18.9015Z" fill="#FBBC05"/>
<path fill-rule="evenodd" clip-rule="evenodd" d="M15.9995 30.6673C19.9593 30.6673 23.2836 29.3637 25.7117 27.1149L21.0837 23.5298C19.8452 24.3935 18.1831 24.9964 15.9995 24.9964C12.1211 24.9964 8.82938 22.438 7.65609 18.9019L2.91406 22.5847C5.32582 27.3756 10.2634 30.6673 15.9995 30.6673Z" fill="#34A853"/>
</svg>
